<?xml version="1.0" encoding="utf-8"?>
<!-- Generator: Adobe Illustrator 19.2.1, SVG Export Plug-In . SVG Version: 6.00 Build 0)  -->
<svg version="1.1" id="Layer_1" xmlns="http://www.w3.org/2000/svg" xmlns:xlink="http://www.w3.org/1999/xlink" x="0px" y="0px"
	 viewBox="0 0 72.8 52.1" style="enable-background:new 0 0 72.8 52.1;" xml:space="preserve">
<style type="text/css">
	.st0{enable-background:new    ;}
	.st1{fill:#3E3D45;}
</style>
<g class="st0">
	<path class="st1" d="M12,15.7c1.7-0.9,3.5-1.4,5.5-1.4c4.6,0,8,1.7,10.1,5c2.2,3.3,3.3,7.9,3.3,13.9c0,5.6-1.3,10.2-3.8,13.7
		s-6,5.2-10.5,5.2c-4,0-7.2-1.5-9.5-4.4l-0.4,3.5H0V0.9L7.6,0v19.6C8.8,17.9,10.3,16.6,12,15.7z M20.7,43.1c1.4-2.2,2.1-5.4,2.1-9.8
		c0-4.5-0.6-7.8-1.9-9.9c-1.2-2.1-3.1-3.1-5.5-3.1c-1.5,0-3,0.5-4.3,1.4c-1.3,1-2.5,2.2-3.4,3.7v16.8c0.9,1.3,1.9,2.3,3.1,3.1
		c1.2,0.7,2.5,1.1,4,1.1C17.3,46.3,19.3,45.2,20.7,43.1z"/>
	<path class="st1" d="M70.9,16.7c1.3,1.5,1.9,4.2,1.9,7.9v26.7H66V25.6c0-2-0.1-3.4-0.4-4.1c-0.3-0.7-0.9-1.1-1.9-1.1
		c-1.9,0-3.7,1.2-5.3,3.5v27.3h-6.2V25.6c0-2-0.1-3.4-0.4-4.1c-0.3-0.7-0.9-1.1-1.9-1.1c-1.9,0-3.7,1.2-5.3,3.5v27.3h-6.9V15.3h5.8
		l0.5,3.9c1.1-1.6,2.3-2.8,3.5-3.6c1.2-0.8,2.6-1.2,4.2-1.2c3.2,0,5.2,1.5,6.1,4.6c1.1-1.5,2.3-2.6,3.5-3.4c1.3-0.8,2.7-1.2,4.4-1.2
		C67.8,14.3,69.6,15.1,70.9,16.7z"/>
</g>
</svg>
